<?xml version="1.0" encoding="UTF-8"?><svg id="Layer_2" xmlns="http://www.w3.org/2000/svg" viewBox="0 0 360.63 360.94"><g id="Layer_1-2"><path d="M179.55,340.94h-.24c-.36-.34-.68-.74-1.08-1.03-49.82-35.3-99.65-70.59-149.48-105.88-9.17-6.49-18.33-12.99-27.51-19.47-.36-.26-.82-.38-1.24-.57,0-.16,0-.32,0-.48,.18-.39,.41-.77,.52-1.18,.42-1.62,.8-3.25,1.19-4.87,5.93-24.44,11.85-48.89,17.78-73.33,5.47-22.55,10.94-45.09,16.4-67.64,5.28-21.77,10.55-43.55,15.83-65.32,.09-.37,.22-.74,.36-1.18,.46,.1,.85,.18,1.22,.27,7.78,1.99,15.57,3.99,23.35,5.98,21.39,5.48,42.78,10.95,64.17,16.43,12.56,3.22,25.13,6.43,37.69,9.66,.68,.18,1.31,.17,1.98,0,3.69-.97,7.39-1.91,11.09-2.86,19.77-5.06,39.54-10.13,59.31-15.19,18.31-4.69,36.61-9.37,54.92-14.05,.34-.09,.68-.13,1.08-.21,.12,.42,.23,.76,.31,1.09,4.01,16.52,8.01,33.03,12.01,49.55,5.79,23.86,11.58,47.73,17.37,71.59,5.08,20.92,10.15,41.85,15.22,62.77,2.21,9.13,4.42,18.26,6.62,27.39,.34,1.41,.33,1.41-.86,2.25-39.53,27.99-79.05,55.98-118.58,83.97-19.41,13.74-38.81,27.49-58.21,41.23-.45,.32-.84,.71-1.25,1.07ZM282.15,41.27c-.47,.08-.75,.12-1.02,.18-14.99,3.84-29.98,7.68-44.97,11.52-18.57,4.76-37.15,9.51-55.72,14.27-.64,.16-1.22,.18-1.86,.01-20.11-5.16-40.23-10.3-60.35-15.45-13.41-3.43-26.82-6.87-40.23-10.31-.37-.09-.75-.13-1.18-.2-3.08,12.72-6.14,25.31-9.21,37.99,28.13,8.14,56.12,16.25,84.07,24.34,.12,.47,.22,.81,.3,1.16,2.57,11.62,5.14,23.23,7.71,34.85,1.69,7.66,3.4,15.31,5.07,22.97,.17,.78,.52,1.2,1.29,1.48,4.19,1.52,8.35,3.1,12.52,4.68,.63,.24,1.18,.25,1.82,0,4.5-1.71,9.01-3.41,13.53-5.06,.78-.28,1.21-.69,1.48-1.5,3.24-9.7,6.52-19.39,9.79-29.08,.97-2.87,1.94-5.73,2.89-8.6,.22-.67,.54-1.13,1.29-1.2,.19-.02,.38-.11,.57-.16,28.28-8.19,56.55-16.38,84.83-24.57,.38-.11,.74-.24,1.2-.39-4.6-18.99-9.19-37.92-13.81-56.94Zm-117.66,158.38c-.66-.26-1.02-.41-1.38-.55-8.68-3.25-17.36-6.51-26.05-9.74-.79-.29-1.17-.7-1.36-1.55-4.09-18.58-8.22-37.14-12.31-55.72-.22-1.01-.52-1.63-1.66-1.95-20.3-5.82-40.59-11.7-60.88-17.57-.37-.11-.75-.19-1.24-.31-7.06,29.13-14.1,58.15-21.14,87.21,19.66,13.92,39.25,27.8,58.84,41.67,22.38-13.82,44.66-27.58,67.19-41.49Zm139.41-68.4c-.49,.11-.91,.19-1.32,.31-22.24,6.44-44.47,12.88-66.71,19.31-.76,.22-1.18,.56-1.44,1.34-4.01,11.96-8.07,23.9-12.07,35.87-.31,.93-.78,1.42-1.69,1.76-8.32,3.08-16.62,6.2-24.93,9.31-.35,.13-.69,.3-1.25,.54,22.5,13.89,44.8,27.67,67.13,41.46,.49-.34,.91-.62,1.33-.92,15.21-10.77,30.42-21.54,45.63-32.32,3.7-2.62,7.4-5.26,11.12-7.86,.59-.41,.76-.81,.56-1.49-.26-.88-.44-1.78-.66-2.66-5.12-21.11-10.23-42.22-15.35-63.33-.1-.42-.24-.82-.38-1.3Zm-72.24,131.14c-17.5-10.81-34.83-21.51-52.19-32.23-17.39,10.74-34.72,21.44-52.19,32.23,17.47,12.37,34.8,24.65,52.19,36.96,17.38-12.31,34.69-24.57,52.19-36.96Z" style="fill:#9a1d2f;"/></g></svg>