<?xml version="1.0" encoding="UTF-8"?><svg id="Layer_2" xmlns="http://www.w3.org/2000/svg" viewBox="0 0 1584.21 1584.21"><g id="Layer_1-2"><circle cx="792.11" cy="792.11" r="778.61" style="fill:none; stroke:#9a1d2f; stroke-miterlimit:10; stroke-width:27px;"/><circle cx="792.11" cy="792.11" r="586.28" style="fill:none; stroke:#9a1d2f; stroke-miterlimit:10; stroke-width:27px;"/><g><g><text transform="translate(1358.19 1087.97) rotate(120.42)" style="fill:#9a1d2f; font-family:PixelPowerline, &apos;Pixel Powerline&apos;; font-size:92.6px;"><tspan x="0" y="0">N</tspan></text><text transform="translate(1314.43 1159.57) rotate(127.97)" style="fill:#9a1d2f; font-family:PixelPowerline, &apos;Pixel Powerline&apos;; font-size:92.6px;"><tspan x="0" y="0">O</tspan></text><text transform="translate(1261.65 1224.81) rotate(135.48)" style="fill:#9a1d2f; font-family:PixelPowerline, &apos;Pixel Powerline&apos;; font-size:92.6px;"><tspan x="0" y="0">V</tspan></text><text transform="translate(1200.46 1282.45) rotate(142.34)" style="fill:#9a1d2f; font-family:PixelPowerline, &apos;Pixel Powerline&apos;; font-size:92.6px;"><tspan x="0" y="0"> </tspan></text><text transform="translate(1145.36 1323.84) rotate(149.22)" style="fill:#9a1d2f; font-family:PixelPowerline, &apos;Pixel Powerline&apos;; font-size:92.6px;"><tspan x="0" y="0">H</tspan></text><text transform="translate(1072.54 1365.49) rotate(156.8)" style="fill:#9a1d2f; font-family:PixelPowerline, &apos;Pixel Powerline&apos;; font-size:92.6px;"><tspan x="0" y="0">A</tspan></text><text transform="translate(994.86 1397.17) rotate(164.42)" style="fill:#9a1d2f; font-family:PixelPowerline, &apos;Pixel Powerline&apos;; font-size:92.6px;"><tspan x="0" y="0">N</tspan></text><text transform="translate(913.43 1417.98) rotate(171.35)" style="fill:#9a1d2f; font-family:PixelPowerline, &apos;Pixel Powerline&apos;; font-size:92.6px;"><tspan x="0" y="0"> </tspan></text><text transform="translate(844.68 1426.87) rotate(176.63)" style="fill:#9a1d2f; font-family:PixelPowerline, &apos;Pixel Powerline&apos;; font-size:92.6px;"><tspan x="0" y="0">1</tspan></text><text transform="translate(796.53 1429.45) rotate(-177.49)" style="fill:#9a1d2f; font-family:PixelPowerline, &apos;Pixel Powerline&apos;; font-size:92.6px;"><tspan x="0" y="0">8</tspan></text><text transform="translate(712.79 1424.32) rotate(-169.96)" style="fill:#9a1d2f; font-family:PixelPowerline, &apos;Pixel Powerline&apos;; font-size:92.6px;"><tspan x="0" y="0">7</tspan></text><text transform="translate(630.19 1407.52) rotate(-163.95)" style="fill:#9a1d2f; font-family:PixelPowerline, &apos;Pixel Powerline&apos;; font-size:92.6px;"><tspan x="0" y="0">1</tspan></text><text transform="translate(583.9 1393.59) rotate(-158.61)" style="fill:#9a1d2f; font-family:PixelPowerline, &apos;Pixel Powerline&apos;; font-size:92.6px;"><tspan x="0" y="0"> </tspan></text><text transform="translate(520.07 1367.25) rotate(-152.35)" style="fill:#9a1d2f; font-family:PixelPowerline, &apos;Pixel Powerline&apos;; font-size:92.6px;"><tspan x="0" y="0"> </tspan></text><text transform="translate(459.45 1334.47) rotate(-145.46)" style="fill:#9a1d2f; font-family:PixelPowerline, &apos;Pixel Powerline&apos;; font-size:92.6px;"><tspan x="0" y="0">S</tspan></text><text transform="translate(391.22 1284.91) rotate(-139.51)" style="fill:#9a1d2f; font-family:PixelPowerline, &apos;Pixel Powerline&apos;; font-size:92.6px;"><tspan x="0" y="0">I</tspan></text><text transform="translate(354.73 1253.43) rotate(-133.57)" style="fill:#9a1d2f; font-family:PixelPowerline, &apos;Pixel Powerline&apos;; font-size:92.6px;"><tspan x="0" y="0">G</tspan></text><text transform="translate(298.18 1190.91) rotate(-127.63)" style="fill:#9a1d2f; font-family:PixelPowerline, &apos;Pixel Powerline&apos;; font-size:92.6px;"><tspan x="0" y="0">I</tspan></text><text transform="translate(268.94 1152.59) rotate(-121.68)" style="fill:#9a1d2f; font-family:PixelPowerline, &apos;Pixel Powerline&apos;; font-size:92.6px;"><tspan x="0" y="0">L</tspan></text><text transform="translate(164.51 886.17) rotate(-95.57)" style="fill:#9a1d2f; font-family:PixelPowerline, &apos;Pixel Powerline&apos;; font-size:92.6px;"><tspan x="0" y="0">P</tspan></text><text transform="translate(157.83 802.51) rotate(-88.11)" style="fill:#9a1d2f; font-family:PixelPowerline, &apos;Pixel Powerline&apos;; font-size:92.6px;"><tspan x="0" y="0">H</tspan></text><text transform="translate(162.72 718.34) rotate(-82.18)" style="fill:#9a1d2f; font-family:PixelPowerline, &apos;Pixel Powerline&apos;; font-size:92.6px;"><tspan x="0" y="0">I</tspan></text><text transform="translate(169.52 670.64) rotate(-76.18)" style="fill:#9a1d2f; font-family:PixelPowerline, &apos;Pixel Powerline&apos;; font-size:92.6px;"><tspan x="0" y="0">L</tspan></text><text transform="translate(191 589.53) rotate(-68.56)" style="fill:#9a1d2f; font-family:PixelPowerline, &apos;Pixel Powerline&apos;; font-size:92.6px;"><tspan x="0" y="0">L</tspan></text><text transform="translate(223.78 511.9) rotate(-62.57)" style="fill:#9a1d2f; font-family:PixelPowerline, &apos;Pixel Powerline&apos;; font-size:92.6px;"><tspan x="0" y="0">I</tspan></text><text transform="translate(246.22 469.23) rotate(-56.59)" style="fill:#9a1d2f; font-family:PixelPowerline, &apos;Pixel Powerline&apos;; font-size:92.6px;"><tspan x="0" y="0">P</tspan></text><text transform="translate(293.66 400.01) rotate(-49.06)" style="fill:#9a1d2f; font-family:PixelPowerline, &apos;Pixel Powerline&apos;; font-size:92.6px;"><tspan x="0" y="0">S</tspan></text><text transform="translate(350.1 337.7) rotate(-42.21)" style="fill:#9a1d2f; font-family:PixelPowerline, &apos;Pixel Powerline&apos;; font-size:92.6px;"><tspan x="0" y="0"> </tspan></text><text transform="translate(401.74 292.07) rotate(-35.35)" style="fill:#9a1d2f; font-family:PixelPowerline, &apos;Pixel Powerline&apos;; font-size:92.6px;"><tspan x="0" y="0">E</tspan></text><text transform="translate(471.01 244.75) rotate(-27.79)" style="fill:#9a1d2f; font-family:PixelPowerline, &apos;Pixel Powerline&apos;; font-size:92.6px;"><tspan x="0" y="0">X</tspan></text><text transform="translate(545.91 206.96) rotate(-20.19)" style="fill:#9a1d2f; font-family:PixelPowerline, &apos;Pixel Powerline&apos;; font-size:92.6px;"><tspan x="0" y="0">O</tspan></text><text transform="translate(625.16 179.41) rotate(-12.57)" style="fill:#9a1d2f; font-family:PixelPowerline, &apos;Pixel Powerline&apos;; font-size:92.6px;"><tspan x="0" y="0">N</tspan></text><text transform="translate(707.87 163.16) rotate(-6.58)" style="fill:#9a1d2f; font-family:PixelPowerline, &apos;Pixel Powerline&apos;; font-size:92.6px;"><tspan x="0" y="0">I</tspan></text><text transform="translate(755.9 158.03) rotate(-.93)" style="fill:#9a1d2f; font-family:PixelPowerline, &apos;Pixel Powerline&apos;; font-size:92.6px;"><tspan x="0" y="0">E</tspan></text><text transform="translate(839.72 158.36) rotate(6.81)" style="fill:#9a1d2f; font-family:PixelPowerline, &apos;Pixel Powerline&apos;; font-size:92.6px;"><tspan x="0" y="0">N</tspan></text><text transform="translate(922.83 169.76) rotate(14.39)" style="fill:#9a1d2f; font-family:PixelPowerline, &apos;Pixel Powerline&apos;; font-size:92.6px;"><tspan x="0" y="0">S</tspan></text><text transform="translate(1003.9 192.79) rotate(20.41)" style="fill:#9a1d2f; font-family:PixelPowerline, &apos;Pixel Powerline&apos;; font-size:92.6px;"><tspan x="0" y="0">I</tspan></text><text transform="translate(1048.99 209.84) rotate(26.42)" style="fill:#9a1d2f; font-family:PixelPowerline, &apos;Pixel Powerline&apos;; font-size:92.6px;"><tspan x="0" y="0">S</tspan></text><text transform="translate(1123.43 248.85) rotate(33.32)" style="fill:#9a1d2f; font-family:PixelPowerline, &apos;Pixel Powerline&apos;; font-size:92.6px;"><tspan x="0" y="0"> </tspan></text><text transform="translate(1180.52 287.46) rotate(40.18)" style="fill:#9a1d2f; font-family:PixelPowerline, &apos;Pixel Powerline&apos;; font-size:92.6px;"><tspan x="0" y="0">A</tspan></text><text transform="translate(1243.68 342.72) rotate(47.7)" style="fill:#9a1d2f; font-family:PixelPowerline, &apos;Pixel Powerline&apos;; font-size:92.6px;"><tspan x="0" y="0">C</tspan></text><text transform="translate(1299.05 405.76) rotate(55.23)" style="fill:#9a1d2f; font-family:PixelPowerline, &apos;Pixel Powerline&apos;; font-size:92.6px;"><tspan x="0" y="0">A</tspan></text><text transform="translate(1345.69 475.51) rotate(62.79)" style="fill:#9a1d2f; font-family:PixelPowerline, &apos;Pixel Powerline&apos;; font-size:92.6px;"><tspan x="0" y="0">D</tspan></text><text transform="translate(1382.73 550.8) rotate(70.39)" style="fill:#9a1d2f; font-family:PixelPowerline, &apos;Pixel Powerline&apos;; font-size:92.6px;"><tspan x="0" y="0">E</tspan></text><text transform="translate(1410.46 629.63) rotate(79.6)" style="fill:#9a1d2f; font-family:PixelPowerline, &apos;Pixel Powerline&apos;; font-size:92.6px;"><tspan x="0" y="0">M</tspan></text><text transform="translate(1428.3 748.26) rotate(87.14)" style="fill:#9a1d2f; font-family:PixelPowerline, &apos;Pixel Powerline&apos;; font-size:92.6px;"><tspan x="0" y="0">I</tspan></text><text transform="translate(1430.46 796.45) rotate(93.02)" style="fill:#9a1d2f; font-family:PixelPowerline, &apos;Pixel Powerline&apos;; font-size:92.6px;"><tspan x="0" y="0">A</tspan></text><text transform="translate(1424.58 880.15) rotate(100.56)" style="fill:#9a1d2f; font-family:PixelPowerline, &apos;Pixel Powerline&apos;; font-size:92.6px;"><tspan x="0" y="0">E</tspan></text></g><circle cx="1429.74" cy="1034.97" r="19.98" style="fill:#9a1d2f;"/><circle cx="495.65" cy="1408.74" r="19.98" style="fill:#9a1d2f;"/></g><g><path d="M683.97,640s69.71,25.17,79.4-38.73c9.68-63.9-67.78-50.35-67.78-50.35l-25.17-27.11v-51.62h81.23l44.65-37.46h62.67v-53.8h63.38s26.94,3.45,26.94,49.93-52.29,46.48-52.29,46.48h71.65s72.9,197.69-152.98,315.65c-174.29,91.02,9.68,238.19,9.68,238.19" style="fill:none; stroke:#981b2b; stroke-miterlimit:10; stroke-width:27px;"/><path d="M856.32,603.2s17.15,48.46-135.56,139.43c-91.02,54.22-50.35,218.83-50.35,218.83" style="fill:none; stroke:#981b2b; stroke-miterlimit:10; stroke-width:27px;"/><polyline points="707.2 746.5 661.7 701.54 533.56 701.54 533.56 792.01 628.62 792.01 661.7 850.26" style="fill:none; stroke:#981b2b; stroke-miterlimit:10; stroke-width:27px;"/><polyline points="737.2 887.87 605.9 1019.17 533.39 1019.17 533.39 1115.12 644.61 1115.12 782.09 977.64" style="fill:none; stroke:#981b2b; stroke-miterlimit:10; stroke-width:27px;"/><path d="M648.81,611.84s-26.05-37.73-65.51-17.38c-39.46,20.35-63.54-16.86-63.54-16.86" style="fill:none; stroke:#981b2b; stroke-miterlimit:10; stroke-width:27px;"/><path d="M782.09,514.77l30.7-30.7,28.03,30.7s-26.24,39.99-58.73,0Z" style="fill:#981b2b;"/><polyline points="921.19 710.68 1009.3 976.8 1009.3 1115.12 825.09 1115.12 825.09 1031.53 948.82 1031.53" style="fill:none; stroke:#981b2b; stroke-miterlimit:10; stroke-width:27px;"/><line x1="966.04" y1="600.17" x2="1058.57" y2="600.17" style="fill:none; stroke:#981b2b; stroke-miterlimit:10; stroke-width:27px;"/><line x1="966.04" y1="530.93" x2="1058.57" y2="530.93" style="fill:none; stroke:#981b2b; stroke-miterlimit:10; stroke-width:27px;"/><line x1="943.56" y1="669.41" x2="1058.57" y2="669.41" style="fill:none; stroke:#981b2b; stroke-miterlimit:10; stroke-width:27px;"/></g><text transform="translate(1030.28 844.75)" style="fill:#9a1d2f; font-family:PixelPowerline, &apos;Pixel Powerline&apos;; font-size:60px; letter-spacing:.06em;"><tspan x="0" y="0">NON SIBI</tspan></text><line x1="1030.77" y1="769.99" x2="1320.62" y2="769.99" style="fill:none; stroke:#9a1d2f; stroke-miterlimit:10; stroke-width:15px;"/><line x1="1030.77" y1="877.78" x2="1320.62" y2="877.78" style="fill:none; stroke:#9a1d2f; stroke-miterlimit:10; stroke-width:15px;"/><g><line x1="265.15" y1="694.52" x2="478.01" y2="694.52" style="fill:none; stroke:#9a1d2f; stroke-miterlimit:10; stroke-width:15px;"/><line x1="265.15" y1="867.29" x2="478.01" y2="867.29" style="fill:none; stroke:#9a1d2f; stroke-miterlimit:10; stroke-width:15px;"/><text transform="translate(266.18 769.76)" style="fill:#9a1d2f; font-family:PixelPowerline, &apos;Pixel Powerline&apos;; font-size:60px; letter-spacing:.06em;"><tspan x="0" y="0">XAPITI</tspan><tspan x="20.01" y="70">DEOT</tspan></text></g><circle cx="150.41" cy="1030.9" r="19.98" style="fill:#9a1d2f;"/></g></svg>