<?xml version="1.0" encoding="UTF-8"?><svg id="Layer_2" xmlns="http://www.w3.org/2000/svg" viewBox="0 0 1239.79 341.02">
    <g id="Layer_1-2">
        <path
            d="M179.55,341.02h-.24C119.82,298.43,60,255.9,0,214.08,17.7,142.93,34.48,71.32,52.08,.08c42.17,10.69,84.29,21.56,126.43,32.34C221.4,22.89,264.05,10.4,306.9,.1c17.28,70.77,34.37,141.59,51.54,212.39-56,44.61-120.44,84.95-178.89,128.52ZM282.15,41.34c-129.79,32.15-75.82,31.93-205.34,.04-3.08,12.72-6.14,25.31-9.21,37.99,28.13,8.14,56.12,16.25,84.07,24.34,5.39,19.76,7.5,41.72,14.37,60.46,14.57,6.14,13.47,5.29,27.87-.38,5.56-8.72,7.11-20.76,11.27-30.58,1.73-3.01,1.27-8.71,4.74-9.97,28.67-8.34,57.38-16.54,86.03-24.96-4.6-18.99-9.19-37.92-13.81-56.94Zm-117.66,158.38c-9.15-3.51-18.26-6.86-27.43-10.29-.79-.29-1.17-.7-1.36-1.55-4.09-18.58-8.22-37.14-12.31-55.72-.22-1.01-.52-1.63-1.66-1.95-20.73-5.9-41.38-12.02-62.12-17.88-7.06,29.13-14.1,58.15-21.14,87.21,19.66,13.92,39.25,27.8,58.84,41.67,22.38-13.82,44.66-27.58,67.19-41.49Zm139.41-68.4c-22.83,7.28-47.72,12.11-69.47,20.95-16.83,43.8-.83,32.5-39.93,47.47,22.5,13.89,44.8,27.67,67.13,41.46,19.4-13.65,38.69-27.44,58.09-41.1-2.86-22.36-11.02-46.05-15.83-68.79Zm-72.24,131.14c-17.5-10.81-34.83-21.51-52.19-32.23-17.39,10.74-34.72,21.44-52.19,32.23,17.47,12.37,34.8,24.65,52.19,36.96,17.38-12.31,34.69-24.57,52.19-36.96Z"
            style="fill:#9a1d2f;" />
        <g>
            <g>
                <path d="M502.1,251h32.08v12h-19.86v11.73h19.86v11.82h-19.86v29.09h-12.22v-64.64Z"
                    style="fill:#231f20;" />
                <path d="M556.75,251h35.73v12.13h-11.78v52.51h-12.48v-52.51h-11.47v-12.13Z" style="fill:#231f20;" />
                <path
                    d="M678.33,262.36l-8.61,8.2c-5.85-6.19-12.44-9.28-19.76-9.28-6.18,0-11.38,2.11-15.61,6.33-4.23,4.22-6.35,9.43-6.35,15.62,0,4.31,.94,8.14,2.81,11.48,1.87,3.34,4.52,5.97,7.95,7.87,3.42,1.91,7.23,2.86,11.42,2.86,3.57,0,6.83-.67,9.79-2,2.96-1.33,6.21-3.76,9.75-7.28l8.34,8.7c-4.78,4.66-9.29,7.89-13.54,9.7-4.25,1.8-9.1,2.7-14.55,2.7-10.05,0-18.27-3.19-24.67-9.56-6.4-6.37-9.6-14.54-9.6-24.5,0-6.45,1.46-12.17,4.37-17.18,2.92-5.01,7.09-9.04,12.52-12.08s11.29-4.57,17.56-4.57c5.33,0,10.47,1.13,15.4,3.38,4.94,2.25,9.19,5.46,12.77,9.61Z"
                    style="fill:#231f20;" />
                <path d="M745.38,251h12.65l16.27,45.92,16.5-45.92h12.63l-23.29,64.64h-11.87l-22.9-64.64Z"
                    style="fill:#231f20;" />
                <path d="M831.34,251h35.29v12.04h-23.07v11.69h23.07v11.82h-23.07v17.01h23.07v12.08h-35.29v-64.64Z"
                    style="fill:#231f20;" />
                <path
                    d="M896.93,251h13.04c7.14,0,12.22,.64,15.25,1.91,3.03,1.28,5.46,3.39,7.31,6.35s2.77,6.46,2.77,10.5c0,4.25-1.02,7.8-3.05,10.66-2.04,2.86-5.1,5.02-9.21,6.48l15.31,28.74h-13.45l-14.54-27.38h-1.12v27.38h-12.3v-64.64Zm12.3,25.27h3.86c3.91,0,6.61-.51,8.08-1.54s2.21-2.73,2.21-5.12c0-1.41-.37-2.64-1.1-3.68s-1.71-1.79-2.94-2.25-3.47-.68-6.75-.68h-3.37v13.27Z"
                    style="fill:#231f20;" />
                <path d="M959.93,251h35.73v12.13h-11.78v52.51h-12.48v-52.51h-11.47v-12.13Z" style="fill:#231f20;" />
                <path d="M1022.14,251h35.29v12.04h-23.07v11.69h23.07v11.82h-23.07v17.01h23.07v12.08h-35.29v-64.64Z"
                    style="fill:#231f20;" />
                <path
                    d="M1082.7,251h13.84l13.59,20.75,13.62-20.75h13.83l-20.51,31.34,21.8,33.3h-13.84l-14.88-22.73-14.87,22.73h-13.93l21.86-33.33-20.5-31.32Z"
                    style="fill:#231f20;" />
            </g>
            <g>
                <path d="M459.53,0V216.35h-54.09V0h54.09Z" style="fill:#231f20;" />
                <path
                    d="M600.51,216.35h-108.18v-54.09h108.18v-27.04h-108.18V0h162.26V54.09h-108.18v27.04h108.18v81.13l-54.09,54.09Z"
                    style="fill:#231f20;" />
                <path
                    d="M795.57,216.35h-108.18v-54.09h108.18v-27.04h-108.18V0h162.26V54.09h-108.18v27.04h108.18v81.13l-54.09,54.09Z"
                    style="fill:#231f20;" />
                <path
                    d="M990.64,216.35h-108.18v-54.09h108.18v-27.04h-108.18v-54.09h108.18v-27.04h-108.18V0h162.26V162.26l-54.09,54.09Z"
                    style="fill:#231f20;" />
                <path d="M1185.71,81.13V0h54.09V216.35h-54.09v-81.13h-108.18V0h54.09V81.13h54.09Z"
                    style="fill:#231f20;" />
            </g>
        </g>
    </g>
</svg>